<svg width="26" height="28" viewBox="0 0 26 28" fill="none" xmlns="http://www.w3.org/2000/svg">
<path d="M13.025 20.5C14.05 22.2125 15.9375 23.375 18.1 23.375C20.2625 23.375 22.15 22.225 23.175 20.5C23.725 19.6 24.0375 18.55 24.0375 17.4375C24.0375 14.1625 21.375 11.5 18.1 11.5M13.025 20.5C12.475 19.6125 12.1625 18.55 12.1625 17.4375M13.025 20.5C12.475 19.6 12.1625 18.55 12.1625 17.4375M13.025 20.5C13.4875 21.275 14.1251 21.9375 14.9001 22.4125V22.8375C14.9001 23.6 14.4001 24.6125 13.7626 24.9875L12.0001 26.125C10.3626 27.1375 8.08757 26 8.08757 23.975V17.2875C8.08757 16.4 7.57507 15.2625 7.07507 14.6375L2.27507 9.58746C1.65007 8.94996 1.13757 7.81251 1.13757 7.06251V4.15C1.13757 2.6375 2.27507 1.5 3.66257 1.5H20.3376C21.7251 1.5 22.8626 2.63752 22.8626 4.02502V6.79999C22.8626 7.81249 22.2251 9.07501 21.6001 9.71251L19.4001 11.65C18.9876 11.55 18.55 11.5 18.1 11.5M12.1625 17.4375C12.1625 14.1625 14.825 11.5 18.1 11.5M20.325 17.4125H15.8875M18.1 15.25V19.6875" stroke="#0199D6" stroke-width="2.25" stroke-miterlimit="10" stroke-linecap="round" stroke-linejoin="round"/>
</svg>
